<svg width="495" height="266" fill="none" xmlns="http://www.w3.org/2000/svg"><g filter="url(#filter0_d_1782_490)"><path d="M314.649 201.403c.572-.583 1.334-1.555 2.288-2.332 1.906-1.555 4.575-3.304 8.198-4.276h.572c0 .194 0 .194-.191.389-1.525 2.137-4.194 3.692-6.673 4.858-1.525.389-3.05.972-4.194 1.361zm.572.972c1.144-.195 3.05-.583 4.957-.583 3.05-.195 6.863-.195 10.104.777.191 0 .381.194.572.194-.191 0-.381.195-.572.195-3.813.972-8.198.777-11.439.194-1.334-.389-2.669-.583-3.622-.777zm-.763.972c.954.388 2.479.777 3.813 1.554 2.669 1.166 5.529 2.916 6.864 5.248 0 .194.19.194.19.389-.19 0-.381 0-.572-.195-3.431-.971-5.91-2.721-7.816-4.276-.954-.971-1.907-1.943-2.479-2.72zm5.148.777c3.431.389 7.435.583 11.439-.389.381 0 .572-.194.953-.388.191.194.381.388.381.583.763.971 1.144 2.526 1.335 4.081-1.907.972-4.004 1.749-5.529 2.138-.381 0-.572.194-.953.194 0-.194-.191-.388-.191-.583-1.716-2.526-4.766-4.276-7.435-5.636zm15.442 3.11c-.19-1.361-.572-2.721-1.334-3.693-.191-.389-.572-.583-.763-.972 0 0 .191 0 .191-.194.953-.972 1.525-2.333 1.906-3.693 0-.194.191-.389.191-.777 1.716.971 3.432 1.943 4.766 2.721a17.985 17.985 0 003.241 1.749c.191 0 .381.194.572.194-.763.194-1.525.583-2.478 1.166-1.907 1.166-4.004 2.527-6.292 3.499zm-3.241-5.248c-.19-.194-.572-.194-.953-.389-3.813-.971-7.817-1.166-11.058-.777h-.381c.191 0 .191 0 .191-.194 2.669-1.167 5.529-2.916 7.244-5.248.191-.194.191-.389.191-.583 1.335.194 3.05.972 4.766 1.749.572.194 1.144.583 1.716.777-.191 1.361-.572 2.721-1.144 3.693 0 .389-.19.583-.572.972zm-18.111-1.36c-.382.583-.382 1.166.19 1.554h.191c-.191 0-.191.195-.381.389-.382.389-.191.972 0 1.361.762.971 1.716 1.943 2.669 2.915.19.194.572.583.953.777 2.288 1.75 4.766 3.11 7.435 3.693.191 0 .572.194.763.194.381 0 .762-.194.953-.388.191.194.572.388.953.194.382 0 .572-.194.954-.194 1.525-.389 3.431-1.166 5.719-2.333.381-.194.572-.388.572-.777.381.194.572.194.953 0 1.144-.583 2.288-1.166 3.432-1.944.953-.583 1.906-.971 2.669-1.36.953-.389 1.716-.777 2.288-.972.381-.194.762-.583.762-.972 0-.388-.19-.971-.762-1.166-.191 0-.382-.194-.382-.194-.953-.389-2.097-1.166-3.05-1.749-.381-.195-.763-.583-1.334-.778-1.144-.583-2.288-1.36-3.623-2.138-.19-.194-.572-.194-.953 0 0-.388-.381-.583-.572-.777-.572-.389-1.144-.583-1.716-.777-1.906-.972-3.622-1.555-4.957-1.75-.381 0-.762 0-.953.195a1.44 1.44 0 00-.953-.389c-.381 0-.572 0-.763.194-4.003.972-7.054 2.916-8.77 4.471-.762.971-1.525 1.749-2.287 2.721zM163.275 203.929c-.572.583-1.335 1.555-2.288 2.333-1.907 1.554-4.576 3.304-8.198 4.275h-.572c0-.194 0-.194.191-.388 1.525-2.138 4.194-3.693 6.672-4.859 1.335-.583 3.051-.972 4.195-1.361zm-.763-.971c-1.144.194-3.05.583-4.957.583-3.05.194-6.863.194-10.104-.778-.191 0-.381-.194-.572-.194.191 0 .381-.194.572-.194 3.813-.972 8.198-.778 11.439-.195 1.525.195 2.669.583 3.622.778zm.763-.972c-.954-.389-2.479-.778-3.813-1.555-2.669-1.166-5.529-2.915-6.864-5.248 0-.194-.19-.194-.19-.388.19 0 .381 0 .572.194 3.431.972 5.91 2.721 7.816 4.276 1.144.972 1.907 1.943 2.479 2.721zm-4.957-.778c-3.432-.388-7.435-.583-11.439.389-.381 0-.572.194-.953.389-.191-.195-.382-.389-.382-.583-.572-.972-.953-2.527-1.334-4.082 1.906-.971 4.003-1.749 5.529-2.138.381 0 .572-.194.953-.194 0 .194.191.389.191.583 1.715 2.527 4.575 4.276 7.435 5.636zm-15.443-3.304c.191 1.361.572 2.721 1.335 3.693.19.389.572.583.762.972 0 0-.19 0-.19.194-.953.972-1.525 2.333-1.907 3.693 0 .194-.19.389-.19.777a470.873 470.873 0 01-4.767-2.721 17.918 17.918 0 00-3.241-1.749c-.19 0-.381-.194-.572-.194.763-.194 1.526-.583 2.479-1.166 1.716-.972 4.004-2.332 6.291-3.499zm3.051 5.442c.19.195.572.195.953.389 3.813.972 7.816 1.166 11.057.777h.382s-.191 0-.191.195c-2.669 1.166-5.529 2.915-7.244 5.247-.191.195-.191.389-.191.583-1.335-.194-3.051-.971-4.766-1.749-.572-.194-1.144-.583-1.716-.777.19-1.361.572-2.721 1.144-3.693.19-.389.381-.583.572-.972zm18.302 1.361c.381-.583.381-1.166-.191-1.555h-.19c.19 0 .19-.194.381-.389.191-.388.191-.972 0-1.36-.763-.972-1.716-1.944-2.669-2.916-.191-.194-.572-.583-.953-.777-2.288-1.749-4.767-3.11-7.436-3.693-.19 0-.572-.194-.762-.194a1.44 1.44 0 00-.954.389c-.19-.195-.571-.389-.953-.195-.381 0-.572.195-.953.195-1.525.388-3.432 1.166-5.719 2.332-.382.194-.572.389-.572.777-.382-.194-.572-.194-.954 0-1.144.583-2.287 1.166-3.431 1.944-.954.583-1.907.972-2.669 1.36-.954.389-1.716.778-2.288.972-.381.194-.763.583-.763.972s.191.972.763 1.166c.19 0 .381.194.381.194.953.389 2.097 1.167 3.05 1.75.382.194.763.583 1.335.777 1.144.583 2.288 1.361 3.622 2.138.191.194.572.194.954 0 0 .389.19.583.572.777.571.389 1.143.583 1.715.778 1.907.972 3.623 1.555 4.957 1.749.382 0 .763 0 .953-.194.191.194.572.388.954.388.381 0 .572 0 .762-.194 4.004-.972 7.054-2.915 8.77-4.47.572-.972 1.335-1.749 2.288-2.721-.191 0-.191 0 0 0z" fill="#D6C19A"/><path d="M179.48 190.908v7.579h1.715c1.716 0 2.669-.777 2.669-3.109v-1.555c0-2.138-.762-2.915-2.287-2.915h-2.097zm0 11.661v8.94h2.478c1.525 0 2.288-.777 2.288-2.915v-2.527c0-2.721-.763-3.498-2.86-3.498h-1.906zm8.96-9.135v.972c0 2.915-.953 4.859-2.86 5.831 2.479.971 3.241 3.109 3.241 6.219v2.332c0 4.47-2.287 6.803-6.672 6.803h-7.054v-28.959h6.672c4.576 0 6.673 2.332 6.673 6.802z" fill="#EBD8C9"/><path d="M179.48 190.908v7.579h1.715c1.716 0 2.669-.777 2.669-3.109v-1.555c0-2.138-.762-2.915-2.287-2.915h-2.097v0zm0 11.661v8.94h2.478c1.525 0 2.288-.777 2.288-2.915v-2.527c0-2.721-.763-3.498-2.86-3.498h-1.906zm8.96-9.135v.972c0 2.915-.953 4.859-2.86 5.831 2.479.971 3.241 3.109 3.241 6.219v2.332c0 4.47-2.287 6.803-6.672 6.803h-7.054v-28.959h6.672c4.576 0 6.673 2.332 6.673 6.802z" stroke="#56453A" stroke-width=".326" stroke-miterlimit="10"/><path d="M199.878 186.632h-4.385v28.959h4.385v-28.959z" fill="#EBD8C9"/><path d="M199.878 186.632h-4.385v28.959h4.385v-28.959z" stroke="#56453A" stroke-width=".326" stroke-miterlimit="10"/><path d="M211.317 208.983c0 2.138.953 2.915 2.288 2.915 1.334 0 2.288-.777 2.288-2.915v-15.549c0-2.138-.954-2.915-2.288-2.915-1.335 0-2.288.777-2.288 2.915v15.549zm-4.385-15.354c0-4.665 2.479-7.191 6.673-7.191s6.673 2.72 6.673 7.191v14.965c0 4.665-2.479 7.191-6.673 7.191s-6.673-2.721-6.673-7.191v-14.965z" fill="#EBD8C9"/><path d="M211.317 208.983c0 2.138.953 2.915 2.288 2.915 1.334 0 2.288-.777 2.288-2.915v-15.549c0-2.138-.954-2.915-2.288-2.915-1.335 0-2.288.777-2.288 2.915v15.549zm-4.385-15.354c0-4.665 2.479-7.191 6.673-7.191s6.673 2.72 6.673 7.191v14.965c0 4.665-2.479 7.191-6.673 7.191s-6.673-2.721-6.673-7.191v-14.965z" stroke="#56453A" stroke-width=".326" stroke-miterlimit="10"/><path d="M227.331 186.632v28.959h4.385v-11.856h5.72v-4.276h-5.72v-8.551h7.435v-4.276h-11.82z" fill="#EBD8C9"/><path d="M231.717 199.459h5.719v4.276h-5.719v11.856h-4.385v-28.959h11.82v4.276h-7.435v8.551z" stroke="#56453A" stroke-width=".326" stroke-miterlimit="10"/><path d="M249.448 208.983c0 2.138.953 2.915 2.287 2.915 1.335 0 2.288-.777 2.288-2.915v-15.549c0-2.138-.953-2.915-2.288-2.915-1.334 0-2.287.777-2.287 2.915v15.549zm-4.576-15.354c0-4.665 2.478-7.191 6.673-7.191 4.385 0 6.672 2.72 6.672 7.191v14.965c0 4.665-2.478 7.191-6.672 7.191-4.385 0-6.673-2.721-6.673-7.191v-14.965z" fill="#EBD8C9"/><path d="M249.448 208.983c0 2.138.953 2.915 2.287 2.915 1.335 0 2.288-.777 2.288-2.915v-15.549c0-2.138-.953-2.915-2.288-2.915-1.334 0-2.287.777-2.287 2.915v15.549zm-4.576-15.354c0-4.665 2.478-7.191 6.673-7.191 4.385 0 6.672 2.72 6.672 7.191v14.965c0 4.665-2.478 7.191-6.672 7.191-4.385 0-6.673-2.721-6.673-7.191v-14.965z" stroke="#56453A" stroke-width=".326" stroke-miterlimit="10"/><path d="M269.845 190.908v8.94h1.716c1.716 0 2.669-.777 2.669-3.11v-2.915c0-2.138-.762-2.915-2.287-2.915h-2.098zm4.767 24.683c-.191-.778-.382-1.166-.382-3.499v-4.47c0-2.721-.953-3.693-2.859-3.693h-1.526v11.662h-4.575v-28.959h6.673c4.575 0 6.672 2.138 6.672 6.608v2.332c0 2.915-.953 4.859-2.86 5.831 2.288.972 2.86 3.11 2.86 6.219v4.47c0 1.361 0 2.527.572 3.499h-4.575z" fill="#EBD8C9"/><path d="M269.845 190.908v8.94h1.716c1.716 0 2.669-.777 2.669-3.11v-2.915c0-2.138-.762-2.915-2.287-2.915h-2.098zm4.767 24.683c-.191-.778-.382-1.166-.382-3.499v-4.47c0-2.721-.953-3.693-2.859-3.693h-1.526v11.662h-4.575v-28.959h6.673c4.575 0 6.672 2.138 6.672 6.608v2.332c0 2.915-.953 4.859-2.86 5.831 2.288.972 2.86 3.11 2.86 6.219v4.47c0 1.361 0 2.527.572 3.499h-4.575z" stroke="#56453A" stroke-width=".326" stroke-miterlimit="10"/><path d="M298.062 186.632l-3.05 20.602-3.241-20.602h-6.101v28.959h3.813v-20.408l3.432 20.408h4.194l3.05-20.796v20.796h4.194v-28.959h-6.291z" fill="#EBD8C9"/><path d="M295.011 207.233l3.05-20.601h6.291v28.959h-4.194v-20.797l-3.05 20.797h-4.195l-3.431-20.408v20.408h-3.813v-28.959h6.1l3.242 20.601z" stroke="#56453A" stroke-width=".326" stroke-miterlimit="10"/><path d="M273.85 93.924s-12.583-39.843-12.583-40.426c0-.583-11.248 40.426-11.248 40.426h23.831z" fill="#D6C19A"/><path d="M137.101 169.467a60.66 60.66 0 01-12.056 12.334c-4.593 3.524-9.377 6.461-14.544 9.006-5.55 2.741-11.1 4.308-16.65 4.699-5.549.392-10.716-.196-15.691-1.762a39.14 39.14 0 01-13.587-8.223c-4.02-3.72-7.464-8.614-10.143-14.488-2.68-5.873-4.21-11.551-4.401-17.229-.192-5.678.574-10.964 2.487-15.858 1.914-4.895 4.785-9.398 8.612-13.51 3.827-4.111 8.612-7.439 14.161-10.18 5.741-2.741 11.29-4.503 16.65-5.482a31.29 31.29 0 0115.883 1.174l-5.358 17.621c-3.254-1.175-6.316-1.762-9.569-1.566-3.253.195-6.89 1.174-10.908 3.132-3.445 1.567-6.124 3.72-8.229 6.07-2.105 2.545-3.827 5.286-4.784 8.223-.957 2.936-1.34 6.265-.957 9.593.383 3.328 1.148 6.852 2.68 10.181 1.53 3.524 3.635 6.265 5.932 8.614a23.257 23.257 0 007.846 5.286c2.87 1.175 5.932 1.567 9.186 1.567 3.253-.196 6.506-.979 9.951-2.741a30.582 30.582 0 008.229-5.482c2.105-1.958 3.636-3.72 4.784-5.286l-5.55-11.748-12.822 6.07-6.889-14.88 27.94-13.509 17.797 38.374zM130.831 121.122l16.013-4.492 2.288 8.593h.19c.763-3.711 2.288-6.836 4.194-9.179 1.907-2.344 4.576-3.906 8.198-4.883l2.859-.585c.953-.196 1.907-.196 2.669-.196l4.004 15.038c-1.144 0-2.479 0-3.623.195-1.143.196-2.287.391-3.622.782-3.05.781-5.337 1.952-6.863 3.32-1.525 1.367-2.668 2.929-3.24 4.882-.572 1.758-.763 3.906-.382 6.249.382 2.344.763 4.687 1.525 7.422l5.91 22.263-16.013 4.492-14.107-53.901zM212.361 126.081c-.19-2.905-1.525-5.229-3.622-6.972-2.097-1.743-4.767-2.518-7.817-2.131a11.586 11.586 0 00-4.767 1.55c-1.334.774-2.478 1.743-3.241 2.711-.953.968-1.525 2.324-1.906 3.486-.382 1.356-.572 2.712-.382 4.067l21.735-2.711zm16.969 22.078c-2.288 3.68-5.148 6.779-8.961 9.297-3.813 2.324-7.817 3.873-12.202 4.454-4.195.581-8.008.387-11.821-.581-3.813-.968-7.245-2.324-10.105-4.454-3.05-2.131-5.529-4.842-7.436-8.135-1.906-3.292-3.241-7.165-3.813-11.426-.572-4.261-.191-8.328.953-12.008 1.144-3.68 2.86-6.972 5.148-9.877 2.288-2.905 5.339-5.229 8.771-6.972 3.432-1.743 7.245-2.905 11.439-3.486 3.813-.581 7.436-.194 10.677.774 3.241.969 6.101 2.518 8.58 4.648 2.478 2.131 4.576 5.036 6.101 8.328 1.525 3.293 2.669 7.166 3.241 11.427l.572 5.229-38.322 4.842c1.143 3.099 2.859 5.423 5.147 7.166 2.479 1.549 5.339 2.13 8.58 1.743 2.669-.388 4.957-1.162 6.673-2.712 1.716-1.549 3.241-3.292 4.385-5.422l12.393 7.165zM273.495 125.321c.19-2.913-.571-5.243-2.474-7.379-1.902-2.135-4.185-3.3-7.229-3.3-1.903 0-3.425.194-4.947.776-1.522.583-2.663 1.165-3.615 2.136-.951.971-1.902 1.942-2.473 3.107-.571 1.165-.951 2.524-1.141 3.883l21.879.777zm13.127 24.853c-2.854 3.301-6.278 5.825-10.464 7.573-4.186 1.747-8.371 2.524-12.747 2.33-4.185-.195-7.99-.971-11.605-2.525-3.615-1.553-6.659-3.495-9.322-6.213-2.664-2.718-4.566-5.825-5.898-9.32-1.332-3.689-2.093-7.572-1.903-12.038.191-4.272 1.142-8.349 2.854-11.65 1.712-3.495 3.995-6.408 6.659-8.738 2.854-2.33 6.088-4.271 9.703-5.436a33.426 33.426 0 0111.795-1.554c3.805.194 7.23.971 10.274 2.524 3.044 1.554 5.707 3.495 7.8 6.214 2.093 2.524 3.615 5.631 4.566 9.32.951 3.495 1.522 7.572 1.332 11.844l-.19 5.242L251.045 136c.571 3.301 1.902 5.825 3.995 7.961 2.093 1.941 4.756 3.106 7.991 3.301 2.663.194 5.136-.389 7.039-1.554 1.903-1.165 3.615-2.718 5.137-4.66l11.415 9.126zM302.564 106.829l15.672 3.483-1.529 7.162h.191c.765-.968 1.72-1.742 2.867-2.517 1.147-.774 2.485-1.548 4.014-1.935 1.529-.581 3.058-.774 4.778-.968 1.72-.193 3.631 0 5.542.387 4.205.968 7.263 2.323 9.557 4.065 2.293 1.742 3.822 4.064 4.778 6.58.955 2.516 1.338 5.419 1.146 8.71-.191 3.096-.573 6.58-1.337 10.257l-6.308 29.419-16.245-3.484 5.542-26.128c.383-1.549.574-3.097.765-4.839.191-1.742.191-3.29 0-4.838-.191-1.549-.765-2.903-1.72-3.871-.956-1.161-2.485-1.936-4.587-2.323-2.103-.387-3.823-.387-5.352 0-1.529.581-2.675 1.355-3.631 2.516-.956 1.162-1.72 2.516-2.294 4.065-.573 1.548-.955 3.29-1.337 5.032l-5.734 26.515-16.246-3.484 11.468-53.804zM374.115 93.317l-27.486 80.587 15.666 5.553L389.78 98.87l-15.665-5.553zM391.67 202.569c-2.287 2.138-4.385 4.082-6.291 5.636-1.907 1.555-3.813 2.721-5.91 3.304a16.044 16.044 0 01-6.863.389c-2.479-.389-5.529-1.36-9.152-3.304-3.813-1.943-7.244-4.276-10.295-7.385l8.008-11.467c1.715 2.138 3.813 3.887 6.291 5.053 1.716.777 3.05 1.36 4.385 1.555 1.334.194 2.288 0 3.432-.389.953-.389 2.097-.972 3.05-1.749a231.13 231.13 0 003.241-2.721l2.478-2.332 2.479-60.251 16.205 7.969-3.05 38.871.19.194 26.31-27.404 15.442 7.58-49.95 46.451z" fill="#fff"/><path d="M92.543 83.623c0 .778-.19 1.555-.572 1.944-.38.389-.953.583-1.525.583s-1.144-.195-1.525-.583c-.381-.389-.572-1.166-.572-1.944V53.11c0-.777.19-1.555.572-1.943.19-.583.763-.778 1.525-.778.572 0 1.144.195 1.526.583.38.39.571 1.167.571 1.944v13.41h18.493V53.11c0-.777.191-1.555.572-1.943.572-.583.954-.778 1.716-.778.572 0 1.144.195 1.525.583.382.39.572 1.167.572 1.944v30.708c0 .778-.19 1.555-.572 1.944-.381.389-.953.583-1.525.583s-1.144-.195-1.525-.583c-.381-.389-.572-1.166-.572-1.944v-13.41H92.734v13.41h-.19zM128.195 72.74c0 1.166.191 2.332.381 3.304.191 1.166.572 2.138 1.335 3.11a6.64 6.64 0 002.288 2.332 6.488 6.488 0 003.431.971 6.49 6.49 0 003.432-.971 6.64 6.64 0 002.288-2.333c.572-.972.953-1.943 1.334-3.11.191-1.166.382-2.332.382-3.303 0-1.167-.191-2.333-.382-3.304-.19-1.167-.572-2.138-1.334-3.11a6.64 6.64 0 00-2.288-2.332 6.49 6.49 0 00-3.432-.972 6.488 6.488 0 00-3.431.972 6.64 6.64 0 00-2.288 2.332c-.572.972-.953 1.943-1.335 3.11-.19 1.166-.381 2.137-.381 3.304zm-4.385 0c0-1.75.191-3.499.763-5.054.572-1.555 1.334-3.11 2.288-4.276.953-1.166 2.287-2.332 3.622-2.915 1.525-.777 3.05-1.166 4.957-1.166 1.906 0 3.431.389 4.957 1.166a11.007 11.007 0 013.622 2.916c.953 1.166 1.716 2.72 2.288 4.275.572 1.555.762 3.304.762 5.054 0 1.749-.19 3.498-.762 5.053-.572 1.555-1.335 3.11-2.288 4.276-.953 1.166-2.288 2.332-3.622 2.915-1.526.777-3.051 1.166-4.957 1.166-1.907 0-3.432-.389-4.957-1.166a11.007 11.007 0 01-3.622-2.915c-.954-1.166-1.716-2.721-2.288-4.276-.572-1.555-.763-3.304-.763-5.053zM170.9 69.241c0-1.943-.572-3.304-1.525-4.47-.954-1.166-2.288-1.555-4.195-1.555-1.716 0-3.241.583-4.194 1.555-.953 1.166-1.525 2.527-1.525 4.47v14.771c0 .778-.191 1.36-.572 1.75-.381.388-.953.582-1.525.582s-1.144-.194-1.525-.583c-.382-.388-.572-.971-.572-1.749v-22.35c0-.778.19-1.361.572-1.75.381-.389.953-.583 1.525-.583s1.144.194 1.525.583c.381.389.572.972.572 1.75v.777h.191c.19-.389.571-.778.953-.972.381-.389.762-.777 1.334-.972.572-.389 1.144-.583 1.907-.777.762-.195 1.525-.389 2.478-.389 1.335 0 2.479.389 3.813.972 1.335.583 2.479 1.749 3.622 3.498.954-1.36 2.098-2.526 3.241-3.304 1.335-.777 2.86-1.166 4.767-1.166.953 0 2.097.194 3.241.583 1.144.389 2.097.972 2.859 1.75.954.777 1.716 1.748 2.288 3.109.572 1.166.763 2.721.763 4.47v14.577c0 .777-.191 1.36-.572 1.749-.381.389-.953.583-1.525.583s-1.144-.194-1.526-.583c-.381-.389-.571-.972-.571-1.75V69.242c0-1.943-.572-3.304-1.526-4.47-.953-1.166-2.287-1.555-4.194-1.555-1.716 0-3.241.583-4.194 1.555-.953 1.166-1.525 2.527-1.525 4.47v14.771c0 .778-.191 1.36-.572 1.75-.382.388-.954.582-1.525.582-.572 0-1.144-.194-1.526-.583-.381-.388-.572-.971-.572-1.749v-14.77h-.19zM217.608 71.185c0-.972-.191-1.944-.382-2.916-.19-.971-.762-1.749-1.334-2.526-.572-.778-1.335-1.36-2.097-1.944-.953-.583-1.907-.777-3.051-.777-1.334 0-2.478.194-3.431.583-.954.389-1.716 1.166-2.288 1.943-.572.778-.953 1.555-1.335 2.721-.19.972-.381 1.944-.381 2.916h14.299zm-14.49 3.304c0 1.166.191 2.138.572 3.11.382.971.954 1.749 1.526 2.526.762.778 1.525 1.36 2.478 1.75.953.388 2.097.582 3.241.582 1.525 0 2.669-.194 3.622-.583.954-.388 1.716-.777 2.479-1.166l1.716-1.166c.381-.389.953-.583 1.334-.583.381 0 .763.194 1.144.583.381.389.572.777.572 1.36 0 .584-.381 1.167-.953 1.75s-1.335 1.166-2.479 1.749c-.953.583-2.097.972-3.431 1.36-1.335.39-2.479.583-3.813.583-2.097 0-4.004-.388-5.529-1.166-1.525-.777-2.86-1.749-3.813-2.915-.953-1.166-1.716-2.721-2.097-4.276-.382-1.555-.763-3.304-.763-5.053 0-1.75.191-3.498.763-5.053.572-1.555 1.334-3.11 2.288-4.276.953-1.166 2.287-2.138 3.622-2.915 1.525-.778 3.05-1.167 4.957-1.167 1.716 0 3.431.39 4.766 1.166 1.334.778 2.669 1.75 3.622 2.916.954 1.166 1.716 2.526 2.288 4.081.572 1.555.763 3.11.763 4.665 0 .777-.191 1.36-.572 1.749-.382.389-.954.583-1.907.583h-16.396v-.194zM313.886 69.824c-.572 0-1.144-.194-1.525-.583-.382-.388-.572-.777-.572-1.555 0-.777.19-1.166.572-1.555.381-.388.953-.583 1.525-.583h7.245c1.143 0 1.906.195 2.478.778.572.583.763 1.36.763 2.915 0 2.138-.191 4.276-.763 6.22-.381 1.943-1.335 3.887-2.288 5.442a12.978 12.978 0 01-4.575 3.887c-1.907.971-4.385 1.36-7.436 1.36-2.478 0-4.766-.583-6.672-1.555-1.907-.971-3.623-2.332-4.767-4.081-1.334-1.75-2.287-3.499-2.859-5.83-.572-2.139-.954-4.471-.954-6.609 0-2.332.382-4.47.954-6.608s1.716-4.081 2.859-5.83c1.335-1.75 3.051-2.916 4.957-4.082 2.097-.972 4.385-1.555 7.245-1.555 1.906 0 3.432.194 4.957.583 1.525.389 2.669.972 3.813 1.555 1.144.583 1.906 1.166 2.478 1.944.572.582.953 1.166.953 1.749 0 .583-.19.971-.572 1.554-.571.584-1.143.778-1.715.778-.572 0-1.144-.194-1.716-.583-.572-.389-1.144-.778-1.907-1.36-.762-.584-1.716-.972-2.669-1.361-1.144-.389-2.478-.583-4.003-.583-1.907 0-3.623.388-5.148 1.36-1.334.778-2.478 1.944-3.432 3.304-.953 1.36-1.525 2.916-1.906 4.47-.381 1.75-.572 3.305-.572 5.054s.191 3.304.572 5.053c.381 1.75 1.144 3.11 1.906 4.47.954 1.36 2.098 2.527 3.432 3.304 1.525.778 3.241 1.166 5.148 1.166a11.33 11.33 0 004.575-.971c1.335-.584 2.288-1.555 3.241-2.527.763-.972 1.525-2.138 1.907-3.498.381-1.167.572-2.527.572-3.693v-1.944h-6.101zM328.185 61.661c0-.777.19-1.36.572-1.749.381-.389.953-.583 1.525-.583s1.144.194 1.525.583c.381.389.572.972.572 1.75v.971l.19.194c.954-1.166 2.098-2.137 3.432-2.72 1.335-.584 2.669-.778 4.004-.778.953 0 2.097.194 3.241.583 1.144.389 2.097.972 2.859 1.75.954.777 1.716 1.748 2.288 3.109.572 1.36.954 2.915.954 4.665v14.576c0 .778-.191 1.36-.572 1.75-.382.388-.954.582-1.526.582-.572 0-1.144-.194-1.525-.583-.381-.388-.572-.971-.572-1.749V69.63c0-1.166-.19-2.138-.572-2.915-.381-.778-.762-1.555-1.334-1.944-.572-.583-1.144-.972-1.907-1.166-.762-.194-1.525-.389-2.097-.389-.762 0-1.525.194-2.097.389-.763.194-1.335.583-1.906 1.166-.572.583-1.144 1.166-1.335 1.944-.381.777-.572 1.749-.572 2.915v14.382c0 .778-.191 1.36-.572 1.75-.381.388-.953.582-1.525.582s-1.144-.194-1.525-.583c-.382-.388-.572-.971-.572-1.749v-22.35h-.953zM358.117 72.74c0 1.166.191 2.332.382 3.304.19 1.166.571 2.138 1.143 3.11a6.64 6.64 0 002.288 2.332 6.49 6.49 0 003.432.971 6.495 6.495 0 003.432-.971 6.637 6.637 0 002.287-2.333c.572-.972.954-1.943 1.335-3.11.19-1.166.381-2.332.381-3.303 0-1.167-.191-2.333-.381-3.304-.191-1.167-.572-2.138-1.335-3.11a6.638 6.638 0 00-2.287-2.332 6.495 6.495 0 00-3.432-.972 6.49 6.49 0 00-3.432.972 6.64 6.64 0 00-2.288 2.332c-.572.972-.953 1.943-1.143 3.11-.191 1.166-.382 2.137-.382 3.304zm-4.385 0c0-1.75.191-3.499.763-5.054.572-1.555 1.334-3.11 2.288-4.276.953-1.166 2.287-2.332 3.622-2.915 1.525-.777 3.05-1.166 4.957-1.166 1.906 0 3.432.389 4.957 1.166a11.007 11.007 0 013.622 2.916c.953 1.166 1.716 2.72 2.288 4.275.572 1.555.762 3.304.762 5.054 0 1.749-.19 3.498-.762 5.053-.572 1.555-1.335 3.11-2.288 4.276-.953 1.166-2.288 2.332-3.622 2.915-1.525.777-3.051 1.166-4.957 1.166-1.907 0-3.432-.389-4.957-1.166a11.007 11.007 0 01-3.622-2.915c-.954-1.166-1.716-2.721-2.288-4.276-.572-1.555-.763-3.304-.763-5.053zM397.198 69.241c0-1.943-.572-3.304-1.525-4.47s-2.288-1.555-4.194-1.555c-1.716 0-3.241.583-4.194 1.555-.954 1.166-1.526 2.527-1.526 4.47v14.771c0 .778-.19 1.36-.572 1.75-.381.388-.953.582-1.525.582s-1.144-.194-1.525-.583c-.381-.388-.572-.971-.572-1.749v-22.35c0-.778.191-1.361.572-1.75.381-.389.953-.583 1.525-.583s1.144.194 1.525.583c.382.389.572.972.572 1.75v.777h.191c.191-.389.572-.778.953-.972.382-.389.763-.777 1.335-.972.572-.389 1.144-.583 1.906-.777.763-.195 1.525-.389 2.479-.389 1.334 0 2.478.389 3.813.972 1.334.583 2.478 1.749 3.431 3.498.954-1.36 2.097-2.526 3.241-3.304 1.335-.777 2.86-1.166 4.767-1.166.953 0 2.097.194 3.05.583 1.144.389 2.097.972 2.86 1.75.953.777 1.715 1.748 2.287 3.109.572 1.36.954 2.915.954 4.665v14.576c0 .778-.191 1.36-.572 1.75-.382.388-.954.582-1.526.582-.571 0-1.143-.194-1.525-.583-.381-.388-.572-.971-.572-1.749v-14.77c0-1.944-.572-3.305-1.525-4.471s-2.288-1.555-4.194-1.555c-1.716 0-3.241.583-4.194 1.555-.954 1.166-1.526 2.527-1.526 4.47v14.771c0 .778-.19 1.36-.571 1.75-.382.388-.954.582-1.526.582-.572 0-1.144-.194-1.525-.583-.381-.388-.572-.971-.572-1.749v-14.77zM440.095 71.185c0-.972-.191-1.944-.381-2.916-.191-.971-.763-1.749-1.335-2.526-.572-.778-1.334-1.36-2.097-1.944-.953-.583-1.906-.777-3.05-.777-1.335 0-2.479.194-3.432.583-.953.389-1.716 1.166-2.288 1.943-.572.778-.953 1.555-1.334 2.721-.191.972-.381 1.944-.381 2.916h14.298zm-14.489 3.304c0 1.166.191 2.138.572 3.11.381.971.762 1.749 1.525 2.526.763.778 1.525 1.36 2.478 1.75.954.388 2.098.582 3.241.582 1.526 0 2.67-.194 3.623-.583.953-.388 1.716-.777 2.478-1.166l1.716-1.166c.381-.389.953-.583 1.335-.583.381 0 .762.194 1.143.583.382.389.572.777.572 1.36 0 .584-.381 1.167-.953 1.75s-1.334 1.166-2.478 1.749c-.954.583-2.097.972-3.432 1.36-1.334.39-2.478.583-3.813.583-2.097 0-4.004-.388-5.529-1.166-1.525-.777-2.859-1.749-3.813-2.915-.953-1.166-1.715-2.721-2.097-4.276-.381-1.555-.762-3.304-.762-5.053 0-1.75.19-3.498.762-5.053.572-1.555 1.335-3.11 2.288-4.276.953-1.166 2.288-2.138 3.622-2.915 1.525-.778 3.051-1.167 4.957-1.167 1.716 0 3.432.39 4.766 1.166 1.335.778 2.669 1.75 3.623 2.916.953 1.166 1.716 2.526 2.287 4.081.572 1.555.763 3.11.763 4.665 0 .777-.191 1.36-.572 1.749-.381.389-.953.583-1.906.583h-16.396v-.194z" fill="#EBD8C9"/></g><defs><filter id="filter0_d_1782_490" x="0" y="0" width="494.48" height="265.948" filterUnits="userSpaceOnUse" color-interpolation-filters="sRGB"><feFlood flood-opacity="0" result="BackgroundImageFix"/><feColorMatrix in="SourceAlpha" values="0 0 0 0 0 0 0 0 0 0 0 0 0 0 0 0 0 0 127 0" result="hardAlpha"/><feOffset/><feGaussianBlur stdDeviation="25"/><feColorMatrix values="0 0 0 0 0.111407 0 0 0 0 0.208333 0 0 0 0 0.0972222 0 0 0 0.5 0"/><feBlend in2="BackgroundImageFix" result="effect1_dropShadow_1782_490"/><feBlend in="SourceGraphic" in2="effect1_dropShadow_1782_490" result="shape"/></filter></defs></svg>